PathFileType	4	(X/Y/Z)	RBDS023\RBDS023runT25.trc
DataRate	CameraRate	NumFrames	NumMarkers	Units	OrigDataRate	OrigDataStartFrame	OrigNumFrames
150.000000	150.000000	5	33	mm	150.000000	1125	4500
Frame#	Time	L.ASIS			L.Heel.Bottom			L.Heel.Lateral			L.Heel.Top			L.Iliac.Crest			L.MT1			L.MT5			L.PSIS			L.Shank.Bottom.Lateral			L.Shank.Bottom.Medial			L.Shank.Top.Lateral			L.Shank.Top.Medial			L.Thigh.Bottom.Lateral			L.Thigh.Bottom.Medial			L.Thigh.Top.Lateral			L.Thigh.Top.Medial			R.ASIS			R.ASY			R.Heel.Bottom			R.Heel.Lateral			R.Heel.Top			R.Iliac.Crest			R.MT1			R.MT5			R.PSIS			R.Shank.Bottom.Lateral			R.Shank.Bottom.Medial			R.Shank.Top.Lateral			R.Shank.Top.Medial			R.Thigh.Bottom.Lateral			R.Thigh.Bottom.Medial			R.Thigh.Top.Lateral			R.Thigh.Top.Medial			
		X1	Y1	Z1	X2	Y2	Z2	X3	Y3	Z3	X4	Y4	Z4	X5	Y5	Z5	X6	Y6	Z6	X7	Y7	Z7	X8	Y8	Z8	X9	Y9	Z9	X10	Y10	Z10	X11	Y11	Z11	X12	Y12	Z12	X13	Y13	Z13	X14	Y14	Z14	X15	Y15	Z15	X16	Y16	Z16	X17	Y17	Z17	X18	Y18	Z18	X19	Y19	Z19	X20	Y20	Z20	X21	Y21	Z21	X22	Y22	Z22	X23	Y23	Z23	X24	Y24	Z24	X25	Y25	Z25	X26	Y26	Z26	X27	Y27	Z27	X28	Y28	Z28	X29	Y29	Z29	X30	Y30	Z30	X31	Y31	Z31	X32	Y32	Z32	X33	Y33	Z33	

1126	7.500000000000001	2357.766312717358	1057.682351378853	915.2906644129944	2397.091681696714	23.12016398273373	987.4697259389795	2414.427954598819	48.47153426055124	945.4044530997676	2392.142093784828	69.79827739221476	986.9512278078581	2288.542144289187	1138.258328104316	859.2961230460959	2606.838314643127	105.4837467687	1007.296081449533	2571.966141385781	79.89184329075682	899.2116422933188	2181.12176465086	1102.113245642148	953.0822118922607	2430.521569974188	180.4644220695841	918.9637954489081	2389.049710640672	172.089039913409	948.0926685387475	2404.623866146851	254.4566579285296	897.858418957275	2362.646311786817	250.8661081605015	930.5587965609484	2352.899933204634	701.2219734549976	856.0179265314839	2290.911324681052	685.1686359108342	886.5860000321454	2315.993644262975	804.2299628492535	841.6259210005908	2257.128843586629	789.5077384075282	872.0804630247002	2348.194932092551	1052.154222896521	1125.325714008693	1819.04540581723	171.8017877713703	1064.129195940812	1692.537574110328	324.0922994688563	1039.916114595555	1715.796222627711	304.8873061950871	1086.366974580835	1739.224028204688	333.6679511951918	1045.126333070316	2296.429503626577	1150.249292702972	1158.729143619958	1793.635818239117	125.4682165050183	1012.442527816555	1765.150079291232	147.4184337124581	1121.564578328788	2178.719975455213	1110.288255591554	1064.33096984188	1839.804027084567	330.9752521073709	1113.144540176496	1811.741503214422	366.4072286267312	1080.314444830252	1891.904561442137	391.3138800459422	1130.857693429689	1864.121521822224	424.4440859653417	1098.452116927579	2147.012389458883	675.8630409887761	1158.006949571236	2098.225139695855	691.3066364548706	1104.904567857981	2162.749763849795	783.3908141957351	1171.234045828911	2116.586353832911	798.3218713346748	1120.870701208008	
1127	7.506666666666667	2356.903502898718	1054.479098883087	914.56230259573	2384.835554112636	22.01841992827389	988.8088425862217	2402.947802532802	46.8412380111472	946.8184964915484	2381.68270991089	68.71676982264403	988.6310953909035	2286.765875177159	1134.069294860669	859.0935157502727	2597.058550011012	96.54192371085139	1008.093803666395	2560.963507924402	72.70295249015786	899.9584962960562	2179.895425752785	1096.764490711549	953.3001342401851	2422.97348871356	176.1047680305499	920.1876932198021	2381.203129683445	168.7397343693235	949.1763590903292	2398.78094713672	250.6002772265439	898.9221529973635	2356.623892980112	248.0509762940487	931.4958057779269	2353.2065933324	697.9601189863497	857.0405980061136	2290.913701021357	681.5915366990479	886.8436505659196	2316.147350319249	800.8706134362412	842.6264706242923	2256.940232210748	785.8865823801092	872.3992959158987	2347.961193559137	1048.186940214677	1125.045277102281	1812.797322238261	178.5420230302919	1065.756745453911	1690.855039943124	334.6765470967131	1042.635315239211	1714.027724325707	314.9940193177484	1088.913865924711	1737.923161653213	342.6573577441475	1047.194750095482	2294.691082487226	1145.495622688339	1158.763759166562	1785.258613004786	132.8166518818167	1014.589146697735	1758.818709041489	156.2216120373388	1124.12120405837	2177.671695624366	1104.265426969322	1064.468234199499	1839.09578208957	336.2233938188922	1114.436520860139	1812.351611967101	372.871388255241	1081.77498455805	1893.818954319616	394.347495864145	1131.734169348427	1867.314192789956	428.6267970919905	1099.447094360541	2152.71598236814	668.3210979565025	1157.183396305338	2104.019613242637	682.7519501729456	1103.720399330192	2166.304908955232	776.1427505748098	1170.338710168133	2120.157496621269	790.1381697174752	1119.673534353995	
1128	7.513333333333334	2355.850742990808	1050.83714852793	913.8445430097934	2371.107475598825	21.3473838864497	989.9175902288665	2390.182344822775	45.60702457946115	948.0849338935024	2369.971555248139	68.04508845883024	990.1619888913067	2284.816399595433	1129.535254949576	858.9374337384447	2585.982123758778	87.01227474973916	1009.233004133907	2548.837132067343	65.30502296795132	900.8458987035036	2178.498202603677	1091.053388839262	953.6351225352288	2414.879262996007	171.741332490094	921.4207446548733	2372.727973571618	165.5446632987707	950.1419758232254	2392.71256808815	246.7724069689268	899.9313299959285	2350.311087214651	245.4262151717267	932.2521110339393	2353.734445280506	694.4966407637877	857.6621438747928	2291.244463667893	677.6838414064739	886.8327277228036	2316.28651705875	797.2346629191053	843.3250666855546	2256.829194423652	781.8596722849297	872.5277610198565	2347.659401717052	1043.748291238797	1124.727555236292	1807.790858107068	185.2873372475881	1067.501516110438	1690.500538236589	345.1301450356315	1045.475402890519	1713.55044051668	324.9872302540664	1091.582647779219	1737.902252345487	351.5050739589406	1049.384710417303	2293.055550772898	1140.197490106329	1158.873517591447	1778.067039632693	140.2519588307073	1016.871111586476	1753.747933524304	165.0246912055428	1126.812284207276	2176.507983452681	1097.745944627585	1064.758724686989	1839.496018461366	341.3234172413202	1115.826849866094	1814.093097424358	379.0945533838919	1083.342540770166	1896.715044938732	397.1425169741885	1132.70301177896	1871.498039464075	432.4963039318054	1100.536167803666	2158.59988767629	660.4122989394369	1156.321009145981	2110.049186766559	673.8077987038624	1102.46583352331	2169.928455558751	768.4996208132909	1169.424680847965	2123.891754799391	781.5274708578675	1118.394462917914	
1129	7.52	2354.584645805666	1046.745210135508	913.163997271115	2356.297108632828	21.12322198648456	990.796746808839	2376.449677266455	44.82316778800546	949.1924377078673	2357.291703637256	67.79186879410311	991.533639303366	2282.767733089137	1124.638763025595	858.8086013950453	2573.841722229176	77.39185080652503	1010.644700222556	2535.835465018577	58.11776592049588	901.8122108732921	2176.924267435773	1085.042047753342	954.0757782051038	2406.420217942424	167.5525782766045	922.6473012744559	2363.83848836275	162.6683560003924	950.9873235657448	2386.568240519387	243.1134125488852	900.8670099269851	2343.887493237778	243.1161743170498	932.8260065094806	2354.44731707289	690.8693277648457	857.8171747341357	2291.882784606057	673.4982640929018	886.5225483964764	2316.375335555193	793.3592991676771	843.647654204388	2256.780726489577	777.4756577080286	872.4266499696741	2347.2700813566	1038.859640407628	1124.363478747395	1804.070458844589	191.9624948579803	1069.364836623199	1691.50137089266	355.3699690908081	1048.356869983282	1714.376419867297	334.7723781112321	1094.299446276955	1739.185190044971	360.1478740714036	1051.644965084866	2291.576272715078	1134.374186024513	1159.081485176288	1772.146792971541	147.7027064241963	1019.269442710788	1749.954657186096	173.7368583738426	1129.597769812914	2175.225211325875	1090.830820623529	1065.195802170642	1841.007503264754	346.2368077582017	1117.295821328953	1816.962728186074	385.0310773244925	1084.993837863053	1900.575812879107	399.6857953788037	1133.750243130235	1876.650381463155	436.0321265955464	1101.705139506207	2164.631585017115	652.2461130087971	1155.448527356066	2116.264595235814	664.5942418096695	1101.186487625118	2173.608264608007	760.5617190445168	1168.518712932323	2127.757338797563	772.6017346935568	1117.082661982135	
1130	7.526666666666667	2353.086024481942	1042.215574463051	912.5381552766719	2340.760019539146	21.32332777759963	991.4658736964943	2362.02725807207	44.50320164264701	950.1412988555581	2343.887555492651	67.93240005522712	992.7476019147587	2280.679068542871	1119.364477822765	858.6890691606503	2560.851207135539	68.16904368330687	1012.231776926081	2522.163057054497	51.52402695308317	902.7864704767986	2175.166717490918	1078.797393905643	954.6152011076852	2397.713700186351	163.6992087293643	923.8475736766239	2354.689212844281	160.2608948007397	951.7148250756732	2380.434348932685	239.7492265247465	901.711151322314	2337.473432971312	241.233350473035	933.2252774925623	2355.286257801718	687.123746098647	857.4875208019151	2292.775656921055	669.0999753723593	885.9140629000224	2316.369966144239	789.2936441773387	843.5638396332713	2256.763183705451	772.8005374293648	872.0864990505606	2346.770622212748	1033.554933591771	1123.946297017318	1801.668699645342	198.4960412957961	1071.339039524844	1693.84907275584	365.3036416421338	1051.211568132491	1716.496394767374	344.2519306467315	1096.998412790834	1741.761029696108	368.5188196043262	1053.924086734423	2290.282462440223	1128.054502541434	1159.40996866164	1767.571691027381	155.0900113347624	1021.763729887542	1747.462770767801	182.2725275555006	1132.44136627029	2173.818658661017	1083.631536232556	1065.767307427196	1843.619133815558	350.9262208254476	1118.818937540297	1820.940951906532	390.6421034752503	1086.700520960751	1905.376018700374	401.9666773127196	1134.85629539403	1882.738665410897	439.2210410109856	1102.935083836632	2170.789700808052	643.9354464815461	1154.597296314208	2122.621976318117	655.230343186973	1099.932889044693	2177.340615347264	752.4348450861954	1167.647844268241	2131.72536056744	763.4748135967413	1115.790119227854	
